<mxfile host="app.diagrams.net" agent="Mozilla/5.0 (Windows NT 10.0; Win64; x64) AppleWebKit/537.36 (KHTML, like Gecko) Chrome/135.0.0.0 Safari/537.36" version="26.2.7">
  <diagram id="C5RBs43oDa-KdzZeNtuy" name="Page-1">
    <mxGraphModel dx="835" dy="427" grid="1" gridSize="10" guides="1" tooltips="1" connect="1" arrows="1" fold="1" page="1" pageScale="1" pageWidth="827" pageHeight="1169" math="0" shadow="0">
      <root>
        <mxCell id="WIyWlLk6GJQsqaUBKTNV-0" />
        <mxCell id="WIyWlLk6GJQsqaUBKTNV-1" parent="WIyWlLk6GJQsqaUBKTNV-0" />
        <mxCell id="WIyWlLk6GJQsqaUBKTNV-2" value="" style="rounded=0;html=1;jettySize=auto;orthogonalLoop=1;fontSize=11;endArrow=block;endFill=0;endSize=8;strokeWidth=1;shadow=0;labelBackgroundColor=none;edgeStyle=orthogonalEdgeStyle;" parent="WIyWlLk6GJQsqaUBKTNV-1" source="r73vxWkxGdkr4o0qUT2c-0" edge="1">
          <mxGeometry relative="1" as="geometry">
            <mxPoint x="95" y="180" as="targetPoint" />
          </mxGeometry>
        </mxCell>
        <mxCell id="WIyWlLk6GJQsqaUBKTNV-3" value="&lt;font style=&quot;font-size: 16px;&quot;&gt;initial commit&lt;/font&gt;" style="rounded=1;whiteSpace=wrap;html=1;fontSize=12;glass=0;strokeWidth=1;shadow=0;" parent="WIyWlLk6GJQsqaUBKTNV-1" vertex="1">
          <mxGeometry x="35" y="90" width="120" height="40" as="geometry" />
        </mxCell>
        <mxCell id="r73vxWkxGdkr4o0qUT2c-2" value="&lt;font style=&quot;font-size: 22px;&quot;&gt;111&lt;/font&gt;" style="ellipse;whiteSpace=wrap;html=1;aspect=fixed;" parent="WIyWlLk6GJQsqaUBKTNV-1" vertex="1">
          <mxGeometry x="10" y="250" width="60" height="60" as="geometry" />
        </mxCell>
        <mxCell id="r73vxWkxGdkr4o0qUT2c-3" value="" style="endArrow=classic;html=1;rounded=0;exitX=0;exitY=0.5;exitDx=0;exitDy=0;entryX=0.5;entryY=0;entryDx=0;entryDy=0;" parent="WIyWlLk6GJQsqaUBKTNV-1" source="r73vxWkxGdkr4o0qUT2c-0" target="r73vxWkxGdkr4o0qUT2c-2" edge="1">
          <mxGeometry width="50" height="50" relative="1" as="geometry">
            <mxPoint x="105" y="300" as="sourcePoint" />
            <mxPoint x="155" y="250" as="targetPoint" />
          </mxGeometry>
        </mxCell>
        <mxCell id="r73vxWkxGdkr4o0qUT2c-4" value="" style="triangle;whiteSpace=wrap;html=1;rotation=-90;" parent="WIyWlLk6GJQsqaUBKTNV-1" vertex="1">
          <mxGeometry x="120" y="250" width="50" height="60" as="geometry" />
        </mxCell>
        <mxCell id="r73vxWkxGdkr4o0qUT2c-5" value="&lt;font style=&quot;font-size: 22px;&quot;&gt;222&lt;/font&gt;" style="ellipse;whiteSpace=wrap;html=1;aspect=fixed;" parent="WIyWlLk6GJQsqaUBKTNV-1" vertex="1">
          <mxGeometry x="85" y="340" width="60" height="60" as="geometry" />
        </mxCell>
        <mxCell id="r73vxWkxGdkr4o0qUT2c-6" value="" style="rounded=0;html=1;jettySize=auto;orthogonalLoop=1;fontSize=11;endArrow=classicThin;endFill=1;endSize=8;strokeWidth=1;shadow=0;labelBackgroundColor=none;edgeStyle=orthogonalEdgeStyle;" parent="WIyWlLk6GJQsqaUBKTNV-1" source="WIyWlLk6GJQsqaUBKTNV-3" target="r73vxWkxGdkr4o0qUT2c-0" edge="1">
          <mxGeometry relative="1" as="geometry">
            <mxPoint x="95" y="130" as="sourcePoint" />
            <mxPoint x="95" y="180" as="targetPoint" />
          </mxGeometry>
        </mxCell>
        <mxCell id="r73vxWkxGdkr4o0qUT2c-0" value="" style="triangle;whiteSpace=wrap;html=1;rotation=-90;" parent="WIyWlLk6GJQsqaUBKTNV-1" vertex="1">
          <mxGeometry x="70" y="160" width="50" height="60" as="geometry" />
        </mxCell>
        <mxCell id="r73vxWkxGdkr4o0qUT2c-9" value="" style="rounded=0;html=1;jettySize=auto;orthogonalLoop=1;fontSize=11;endArrow=block;endFill=0;endSize=8;strokeWidth=1;shadow=0;labelBackgroundColor=none;edgeStyle=orthogonalEdgeStyle;" parent="WIyWlLk6GJQsqaUBKTNV-1" source="r73vxWkxGdkr4o0qUT2c-12" edge="1">
          <mxGeometry relative="1" as="geometry">
            <mxPoint x="275" y="180" as="targetPoint" />
          </mxGeometry>
        </mxCell>
        <mxCell id="r73vxWkxGdkr4o0qUT2c-10" value="&lt;font style=&quot;font-size: 16px;&quot;&gt;update file1.txt&lt;/font&gt;" style="rounded=1;whiteSpace=wrap;html=1;fontSize=12;glass=0;strokeWidth=1;shadow=0;" parent="WIyWlLk6GJQsqaUBKTNV-1" vertex="1">
          <mxGeometry x="215" y="90" width="120" height="40" as="geometry" />
        </mxCell>
        <mxCell id="r73vxWkxGdkr4o0qUT2c-11" value="" style="rounded=0;html=1;jettySize=auto;orthogonalLoop=1;fontSize=11;endArrow=classic;endFill=1;endSize=8;strokeWidth=1;shadow=0;labelBackgroundColor=none;edgeStyle=orthogonalEdgeStyle;" parent="WIyWlLk6GJQsqaUBKTNV-1" source="r73vxWkxGdkr4o0qUT2c-10" target="r73vxWkxGdkr4o0qUT2c-12" edge="1">
          <mxGeometry relative="1" as="geometry">
            <mxPoint x="275" y="130" as="sourcePoint" />
            <mxPoint x="275" y="180" as="targetPoint" />
          </mxGeometry>
        </mxCell>
        <mxCell id="r73vxWkxGdkr4o0qUT2c-12" value="" style="triangle;whiteSpace=wrap;html=1;rotation=-90;" parent="WIyWlLk6GJQsqaUBKTNV-1" vertex="1">
          <mxGeometry x="250" y="160" width="50" height="60" as="geometry" />
        </mxCell>
        <mxCell id="r73vxWkxGdkr4o0qUT2c-13" value="&lt;font style=&quot;font-size: 22px;&quot;&gt;qqq&lt;/font&gt;" style="ellipse;whiteSpace=wrap;html=1;aspect=fixed;" parent="WIyWlLk6GJQsqaUBKTNV-1" vertex="1">
          <mxGeometry x="245" y="250" width="60" height="60" as="geometry" />
        </mxCell>
        <mxCell id="r73vxWkxGdkr4o0qUT2c-14" value="" style="rounded=0;html=1;jettySize=auto;orthogonalLoop=1;fontSize=11;endArrow=block;endFill=0;endSize=8;strokeWidth=1;shadow=0;labelBackgroundColor=none;edgeStyle=orthogonalEdgeStyle;" parent="WIyWlLk6GJQsqaUBKTNV-1" source="r73vxWkxGdkr4o0qUT2c-17" edge="1">
          <mxGeometry relative="1" as="geometry">
            <mxPoint x="465" y="180" as="targetPoint" />
          </mxGeometry>
        </mxCell>
        <mxCell id="r73vxWkxGdkr4o0qUT2c-15" value="&lt;font style=&quot;font-size: 16px;&quot;&gt;add file3.txt&lt;/font&gt;" style="rounded=1;whiteSpace=wrap;html=1;fontSize=12;glass=0;strokeWidth=1;shadow=0;" parent="WIyWlLk6GJQsqaUBKTNV-1" vertex="1">
          <mxGeometry x="405" y="90" width="120" height="40" as="geometry" />
        </mxCell>
        <mxCell id="r73vxWkxGdkr4o0qUT2c-16" value="" style="rounded=0;html=1;jettySize=auto;orthogonalLoop=1;fontSize=11;endArrow=classicThin;endFill=1;endSize=8;strokeWidth=1;shadow=0;labelBackgroundColor=none;edgeStyle=orthogonalEdgeStyle;" parent="WIyWlLk6GJQsqaUBKTNV-1" source="r73vxWkxGdkr4o0qUT2c-15" target="r73vxWkxGdkr4o0qUT2c-17" edge="1">
          <mxGeometry relative="1" as="geometry">
            <mxPoint x="465" y="130" as="sourcePoint" />
            <mxPoint x="465" y="180" as="targetPoint" />
          </mxGeometry>
        </mxCell>
        <mxCell id="r73vxWkxGdkr4o0qUT2c-17" value="" style="triangle;whiteSpace=wrap;html=1;rotation=-90;" parent="WIyWlLk6GJQsqaUBKTNV-1" vertex="1">
          <mxGeometry x="440" y="160" width="50" height="60" as="geometry" />
        </mxCell>
        <mxCell id="r73vxWkxGdkr4o0qUT2c-18" value="" style="triangle;whiteSpace=wrap;html=1;rotation=-90;" parent="WIyWlLk6GJQsqaUBKTNV-1" vertex="1">
          <mxGeometry x="440" y="250" width="50" height="60" as="geometry" />
        </mxCell>
        <mxCell id="r73vxWkxGdkr4o0qUT2c-19" value="&lt;span style=&quot;font-size: 22px;&quot;&gt;333&lt;/span&gt;" style="ellipse;whiteSpace=wrap;html=1;aspect=fixed;" parent="WIyWlLk6GJQsqaUBKTNV-1" vertex="1">
          <mxGeometry x="435" y="340" width="60" height="60" as="geometry" />
        </mxCell>
        <mxCell id="r73vxWkxGdkr4o0qUT2c-20" value="" style="endArrow=classic;html=1;rounded=0;exitX=0;exitY=0.5;exitDx=0;exitDy=0;entryX=1;entryY=0.5;entryDx=0;entryDy=0;" parent="WIyWlLk6GJQsqaUBKTNV-1" source="r73vxWkxGdkr4o0qUT2c-10" target="WIyWlLk6GJQsqaUBKTNV-3" edge="1">
          <mxGeometry width="50" height="50" relative="1" as="geometry">
            <mxPoint x="165" y="215" as="sourcePoint" />
            <mxPoint x="215" y="165" as="targetPoint" />
          </mxGeometry>
        </mxCell>
        <mxCell id="r73vxWkxGdkr4o0qUT2c-21" value="" style="endArrow=classic;html=1;rounded=0;exitX=0;exitY=0.5;exitDx=0;exitDy=0;entryX=1;entryY=0.5;entryDx=0;entryDy=0;" parent="WIyWlLk6GJQsqaUBKTNV-1" source="r73vxWkxGdkr4o0qUT2c-15" target="r73vxWkxGdkr4o0qUT2c-10" edge="1">
          <mxGeometry width="50" height="50" relative="1" as="geometry">
            <mxPoint x="405" y="109.5" as="sourcePoint" />
            <mxPoint x="345" y="109.5" as="targetPoint" />
          </mxGeometry>
        </mxCell>
        <mxCell id="r73vxWkxGdkr4o0qUT2c-22" value="" style="endArrow=classic;html=1;rounded=0;exitX=0;exitY=0.5;exitDx=0;exitDy=0;entryX=1;entryY=0.5;entryDx=0;entryDy=0;" parent="WIyWlLk6GJQsqaUBKTNV-1" source="r73vxWkxGdkr4o0qUT2c-0" target="r73vxWkxGdkr4o0qUT2c-4" edge="1">
          <mxGeometry width="50" height="50" relative="1" as="geometry">
            <mxPoint x="145" y="250" as="sourcePoint" />
            <mxPoint x="195" y="200" as="targetPoint" />
          </mxGeometry>
        </mxCell>
        <mxCell id="r73vxWkxGdkr4o0qUT2c-23" value="" style="endArrow=classic;html=1;rounded=0;exitX=0;exitY=0.5;exitDx=0;exitDy=0;entryX=0.5;entryY=0;entryDx=0;entryDy=0;" parent="WIyWlLk6GJQsqaUBKTNV-1" source="r73vxWkxGdkr4o0qUT2c-4" target="r73vxWkxGdkr4o0qUT2c-5" edge="1">
          <mxGeometry width="50" height="50" relative="1" as="geometry">
            <mxPoint x="-135" y="430" as="sourcePoint" />
            <mxPoint x="-85" y="380" as="targetPoint" />
          </mxGeometry>
        </mxCell>
        <mxCell id="r73vxWkxGdkr4o0qUT2c-24" value="" style="endArrow=classic;html=1;rounded=0;exitX=0;exitY=0.5;exitDx=0;exitDy=0;entryX=0.5;entryY=0;entryDx=0;entryDy=0;" parent="WIyWlLk6GJQsqaUBKTNV-1" source="r73vxWkxGdkr4o0qUT2c-12" target="r73vxWkxGdkr4o0qUT2c-13" edge="1">
          <mxGeometry width="50" height="50" relative="1" as="geometry">
            <mxPoint x="345" y="310" as="sourcePoint" />
            <mxPoint x="395" y="260" as="targetPoint" />
          </mxGeometry>
        </mxCell>
        <mxCell id="r73vxWkxGdkr4o0qUT2c-25" value="" style="endArrow=classic;html=1;rounded=0;exitX=0;exitY=0.5;exitDx=0;exitDy=0;entryX=1;entryY=0.5;entryDx=0;entryDy=0;" parent="WIyWlLk6GJQsqaUBKTNV-1" source="r73vxWkxGdkr4o0qUT2c-17" target="r73vxWkxGdkr4o0qUT2c-18" edge="1">
          <mxGeometry width="50" height="50" relative="1" as="geometry">
            <mxPoint x="505" y="260" as="sourcePoint" />
            <mxPoint x="555" y="210" as="targetPoint" />
          </mxGeometry>
        </mxCell>
        <mxCell id="r73vxWkxGdkr4o0qUT2c-26" value="" style="endArrow=classic;html=1;rounded=0;entryX=0.5;entryY=0;entryDx=0;entryDy=0;exitX=0;exitY=0.5;exitDx=0;exitDy=0;" parent="WIyWlLk6GJQsqaUBKTNV-1" source="r73vxWkxGdkr4o0qUT2c-18" target="r73vxWkxGdkr4o0qUT2c-19" edge="1">
          <mxGeometry width="50" height="50" relative="1" as="geometry">
            <mxPoint x="345" y="410" as="sourcePoint" />
            <mxPoint x="395" y="360" as="targetPoint" />
          </mxGeometry>
        </mxCell>
        <mxCell id="r73vxWkxGdkr4o0qUT2c-27" value="" style="endArrow=classic;html=1;rounded=0;exitX=0;exitY=0.5;exitDx=0;exitDy=0;dashed=1;" parent="WIyWlLk6GJQsqaUBKTNV-1" source="r73vxWkxGdkr4o0qUT2c-12" target="r73vxWkxGdkr4o0qUT2c-4" edge="1">
          <mxGeometry width="50" height="50" relative="1" as="geometry">
            <mxPoint x="155" y="270" as="sourcePoint" />
            <mxPoint x="205" y="220" as="targetPoint" />
          </mxGeometry>
        </mxCell>
        <mxCell id="r73vxWkxGdkr4o0qUT2c-28" value="" style="endArrow=classic;html=1;rounded=0;exitX=0;exitY=0.5;exitDx=0;exitDy=0;entryX=1;entryY=0;entryDx=0;entryDy=0;dashed=1;" parent="WIyWlLk6GJQsqaUBKTNV-1" source="r73vxWkxGdkr4o0qUT2c-17" target="r73vxWkxGdkr4o0qUT2c-13" edge="1">
          <mxGeometry width="50" height="50" relative="1" as="geometry">
            <mxPoint x="335" y="260" as="sourcePoint" />
            <mxPoint x="385" y="210" as="targetPoint" />
          </mxGeometry>
        </mxCell>
        <mxCell id="r73vxWkxGdkr4o0qUT2c-29" value="" style="endArrow=classic;html=1;rounded=0;entryX=0.96;entryY=0.367;entryDx=0;entryDy=0;entryPerimeter=0;dashed=1;exitX=0;exitY=0.5;exitDx=0;exitDy=0;" parent="WIyWlLk6GJQsqaUBKTNV-1" source="r73vxWkxGdkr4o0qUT2c-18" target="r73vxWkxGdkr4o0qUT2c-5" edge="1">
          <mxGeometry width="50" height="50" relative="1" as="geometry">
            <mxPoint x="415" y="350" as="sourcePoint" />
            <mxPoint x="325" y="360" as="targetPoint" />
          </mxGeometry>
        </mxCell>
        <mxCell id="r73vxWkxGdkr4o0qUT2c-30" value="&lt;font style=&quot;font-size: 16px;&quot;&gt;empty commit&lt;/font&gt;" style="rounded=1;whiteSpace=wrap;html=1;fontSize=12;glass=0;strokeWidth=1;shadow=0;" parent="WIyWlLk6GJQsqaUBKTNV-1" vertex="1">
          <mxGeometry x="580" y="90" width="120" height="40" as="geometry" />
        </mxCell>
        <mxCell id="r73vxWkxGdkr4o0qUT2c-31" value="" style="endArrow=classic;html=1;rounded=0;entryX=1;entryY=0.5;entryDx=0;entryDy=0;exitX=0;exitY=0.5;exitDx=0;exitDy=0;" parent="WIyWlLk6GJQsqaUBKTNV-1" source="r73vxWkxGdkr4o0qUT2c-30" target="r73vxWkxGdkr4o0qUT2c-15" edge="1">
          <mxGeometry width="50" height="50" relative="1" as="geometry">
            <mxPoint x="540" y="190" as="sourcePoint" />
            <mxPoint x="590" y="140" as="targetPoint" />
          </mxGeometry>
        </mxCell>
        <mxCell id="r73vxWkxGdkr4o0qUT2c-32" value="" style="endArrow=classic;html=1;rounded=0;exitX=0.5;exitY=1;exitDx=0;exitDy=0;entryX=0.5;entryY=1;entryDx=0;entryDy=0;dashed=1;" parent="WIyWlLk6GJQsqaUBKTNV-1" source="r73vxWkxGdkr4o0qUT2c-30" target="r73vxWkxGdkr4o0qUT2c-17" edge="1">
          <mxGeometry width="50" height="50" relative="1" as="geometry">
            <mxPoint x="600" y="220" as="sourcePoint" />
            <mxPoint x="650" y="170" as="targetPoint" />
          </mxGeometry>
        </mxCell>
        <mxCell id="r73vxWkxGdkr4o0qUT2c-33" value="&lt;font style=&quot;font-size: 15px;&quot;&gt;file1.txt&lt;/font&gt;" style="text;html=1;align=center;verticalAlign=middle;whiteSpace=wrap;rounded=0;" parent="WIyWlLk6GJQsqaUBKTNV-1" vertex="1">
          <mxGeometry x="10" y="310" width="60" height="30" as="geometry" />
        </mxCell>
        <mxCell id="r73vxWkxGdkr4o0qUT2c-34" value="&lt;font style=&quot;font-size: 15px;&quot;&gt;file2.txt&lt;/font&gt;" style="text;html=1;align=center;verticalAlign=middle;whiteSpace=wrap;rounded=0;" parent="WIyWlLk6GJQsqaUBKTNV-1" vertex="1">
          <mxGeometry x="85" y="400" width="60" height="30" as="geometry" />
        </mxCell>
        <mxCell id="r73vxWkxGdkr4o0qUT2c-35" value="&lt;font style=&quot;font-size: 15px;&quot;&gt;file1.txt&lt;/font&gt;" style="text;html=1;align=center;verticalAlign=middle;whiteSpace=wrap;rounded=0;" parent="WIyWlLk6GJQsqaUBKTNV-1" vertex="1">
          <mxGeometry x="245" y="310" width="60" height="30" as="geometry" />
        </mxCell>
        <mxCell id="r73vxWkxGdkr4o0qUT2c-36" value="&lt;font style=&quot;font-size: 15px;&quot;&gt;file3.txt&lt;/font&gt;" style="text;html=1;align=center;verticalAlign=middle;whiteSpace=wrap;rounded=0;" parent="WIyWlLk6GJQsqaUBKTNV-1" vertex="1">
          <mxGeometry x="435" y="400" width="60" height="30" as="geometry" />
        </mxCell>
        <mxCell id="r73vxWkxGdkr4o0qUT2c-37" value="&lt;span style=&quot;font-size: 15px;&quot;&gt;my-dir&lt;/span&gt;" style="text;html=1;align=center;verticalAlign=middle;whiteSpace=wrap;rounded=0;" parent="WIyWlLk6GJQsqaUBKTNV-1" vertex="1">
          <mxGeometry x="120" y="300" width="90" height="30" as="geometry" />
        </mxCell>
        <mxCell id="r73vxWkxGdkr4o0qUT2c-38" value="&lt;span style=&quot;font-size: 15px;&quot;&gt;my-dir&lt;/span&gt;" style="text;html=1;align=center;verticalAlign=middle;whiteSpace=wrap;rounded=0;" parent="WIyWlLk6GJQsqaUBKTNV-1" vertex="1">
          <mxGeometry x="450" y="300" width="90" height="30" as="geometry" />
        </mxCell>
        <mxCell id="r73vxWkxGdkr4o0qUT2c-39" value="&lt;span style=&quot;font-size: 15px;&quot;&gt;root&lt;/span&gt;" style="text;html=1;align=center;verticalAlign=middle;whiteSpace=wrap;rounded=0;" parent="WIyWlLk6GJQsqaUBKTNV-1" vertex="1">
          <mxGeometry x="10" y="170" width="90" height="30" as="geometry" />
        </mxCell>
        <mxCell id="r73vxWkxGdkr4o0qUT2c-40" value="&lt;span style=&quot;font-size: 15px;&quot;&gt;root&lt;/span&gt;" style="text;html=1;align=center;verticalAlign=middle;whiteSpace=wrap;rounded=0;" parent="WIyWlLk6GJQsqaUBKTNV-1" vertex="1">
          <mxGeometry x="190" y="170" width="90" height="30" as="geometry" />
        </mxCell>
        <mxCell id="r73vxWkxGdkr4o0qUT2c-41" value="&lt;span style=&quot;font-size: 15px;&quot;&gt;root&lt;/span&gt;" style="text;html=1;align=center;verticalAlign=middle;whiteSpace=wrap;rounded=0;" parent="WIyWlLk6GJQsqaUBKTNV-1" vertex="1">
          <mxGeometry x="380" y="175" width="90" height="30" as="geometry" />
        </mxCell>
        <mxCell id="XKEVR6qVA4fLdjEMJO-D-0" value="" style="rounded=0;html=1;jettySize=auto;orthogonalLoop=1;fontSize=11;endArrow=block;endFill=0;endSize=8;strokeWidth=1;shadow=0;labelBackgroundColor=none;edgeStyle=orthogonalEdgeStyle;" edge="1" parent="WIyWlLk6GJQsqaUBKTNV-1" source="XKEVR6qVA4fLdjEMJO-D-7">
          <mxGeometry relative="1" as="geometry">
            <mxPoint x="125" y="700" as="targetPoint" />
          </mxGeometry>
        </mxCell>
        <mxCell id="XKEVR6qVA4fLdjEMJO-D-1" value="&lt;font style=&quot;font-size: 16px;&quot;&gt;initial commit&lt;/font&gt;" style="rounded=1;whiteSpace=wrap;html=1;fontSize=12;glass=0;strokeWidth=1;shadow=0;" vertex="1" parent="WIyWlLk6GJQsqaUBKTNV-1">
          <mxGeometry x="65" y="610" width="120" height="40" as="geometry" />
        </mxCell>
        <mxCell id="XKEVR6qVA4fLdjEMJO-D-2" value="&lt;font style=&quot;font-size: 22px;&quot;&gt;111&lt;/font&gt;" style="ellipse;whiteSpace=wrap;html=1;aspect=fixed;" vertex="1" parent="WIyWlLk6GJQsqaUBKTNV-1">
          <mxGeometry x="40" y="770" width="60" height="60" as="geometry" />
        </mxCell>
        <mxCell id="XKEVR6qVA4fLdjEMJO-D-3" value="" style="endArrow=classic;html=1;rounded=0;exitX=0;exitY=0.5;exitDx=0;exitDy=0;entryX=0.5;entryY=0;entryDx=0;entryDy=0;" edge="1" parent="WIyWlLk6GJQsqaUBKTNV-1" source="XKEVR6qVA4fLdjEMJO-D-7" target="XKEVR6qVA4fLdjEMJO-D-2">
          <mxGeometry width="50" height="50" relative="1" as="geometry">
            <mxPoint x="135" y="820" as="sourcePoint" />
            <mxPoint x="185" y="770" as="targetPoint" />
          </mxGeometry>
        </mxCell>
        <mxCell id="XKEVR6qVA4fLdjEMJO-D-4" value="" style="triangle;whiteSpace=wrap;html=1;rotation=-90;" vertex="1" parent="WIyWlLk6GJQsqaUBKTNV-1">
          <mxGeometry x="150" y="770" width="50" height="60" as="geometry" />
        </mxCell>
        <mxCell id="XKEVR6qVA4fLdjEMJO-D-5" value="&lt;font style=&quot;font-size: 22px;&quot;&gt;222&lt;/font&gt;" style="ellipse;whiteSpace=wrap;html=1;aspect=fixed;" vertex="1" parent="WIyWlLk6GJQsqaUBKTNV-1">
          <mxGeometry x="115" y="860" width="60" height="60" as="geometry" />
        </mxCell>
        <mxCell id="XKEVR6qVA4fLdjEMJO-D-6" value="" style="rounded=0;html=1;jettySize=auto;orthogonalLoop=1;fontSize=11;endArrow=classicThin;endFill=1;endSize=8;strokeWidth=1;shadow=0;labelBackgroundColor=none;edgeStyle=orthogonalEdgeStyle;" edge="1" parent="WIyWlLk6GJQsqaUBKTNV-1" source="XKEVR6qVA4fLdjEMJO-D-1" target="XKEVR6qVA4fLdjEMJO-D-7">
          <mxGeometry relative="1" as="geometry">
            <mxPoint x="125" y="650" as="sourcePoint" />
            <mxPoint x="125" y="700" as="targetPoint" />
          </mxGeometry>
        </mxCell>
        <mxCell id="XKEVR6qVA4fLdjEMJO-D-7" value="" style="triangle;whiteSpace=wrap;html=1;rotation=-90;" vertex="1" parent="WIyWlLk6GJQsqaUBKTNV-1">
          <mxGeometry x="100" y="680" width="50" height="60" as="geometry" />
        </mxCell>
        <mxCell id="XKEVR6qVA4fLdjEMJO-D-8" value="" style="rounded=0;html=1;jettySize=auto;orthogonalLoop=1;fontSize=11;endArrow=block;endFill=0;endSize=8;strokeWidth=1;shadow=0;labelBackgroundColor=none;edgeStyle=orthogonalEdgeStyle;" edge="1" parent="WIyWlLk6GJQsqaUBKTNV-1" source="XKEVR6qVA4fLdjEMJO-D-11">
          <mxGeometry relative="1" as="geometry">
            <mxPoint x="305" y="700" as="targetPoint" />
          </mxGeometry>
        </mxCell>
        <mxCell id="XKEVR6qVA4fLdjEMJO-D-9" value="&lt;font style=&quot;font-size: 16px;&quot;&gt;update file1.txt&lt;/font&gt;" style="rounded=1;whiteSpace=wrap;html=1;fontSize=12;glass=0;strokeWidth=1;shadow=0;" vertex="1" parent="WIyWlLk6GJQsqaUBKTNV-1">
          <mxGeometry x="245" y="610" width="120" height="40" as="geometry" />
        </mxCell>
        <mxCell id="XKEVR6qVA4fLdjEMJO-D-10" value="" style="rounded=0;html=1;jettySize=auto;orthogonalLoop=1;fontSize=11;endArrow=classic;endFill=1;endSize=8;strokeWidth=1;shadow=0;labelBackgroundColor=none;edgeStyle=orthogonalEdgeStyle;" edge="1" parent="WIyWlLk6GJQsqaUBKTNV-1" source="XKEVR6qVA4fLdjEMJO-D-9" target="XKEVR6qVA4fLdjEMJO-D-11">
          <mxGeometry relative="1" as="geometry">
            <mxPoint x="305" y="650" as="sourcePoint" />
            <mxPoint x="305" y="700" as="targetPoint" />
          </mxGeometry>
        </mxCell>
        <mxCell id="XKEVR6qVA4fLdjEMJO-D-11" value="" style="triangle;whiteSpace=wrap;html=1;rotation=-90;" vertex="1" parent="WIyWlLk6GJQsqaUBKTNV-1">
          <mxGeometry x="280" y="680" width="50" height="60" as="geometry" />
        </mxCell>
        <mxCell id="XKEVR6qVA4fLdjEMJO-D-12" value="&lt;font style=&quot;font-size: 22px;&quot;&gt;qqq&lt;/font&gt;" style="ellipse;whiteSpace=wrap;html=1;aspect=fixed;" vertex="1" parent="WIyWlLk6GJQsqaUBKTNV-1">
          <mxGeometry x="275" y="770" width="60" height="60" as="geometry" />
        </mxCell>
        <mxCell id="XKEVR6qVA4fLdjEMJO-D-13" value="" style="rounded=0;html=1;jettySize=auto;orthogonalLoop=1;fontSize=11;endArrow=block;endFill=0;endSize=8;strokeWidth=1;shadow=0;labelBackgroundColor=none;edgeStyle=orthogonalEdgeStyle;" edge="1" parent="WIyWlLk6GJQsqaUBKTNV-1" source="XKEVR6qVA4fLdjEMJO-D-16">
          <mxGeometry relative="1" as="geometry">
            <mxPoint x="495" y="700" as="targetPoint" />
          </mxGeometry>
        </mxCell>
        <mxCell id="XKEVR6qVA4fLdjEMJO-D-14" value="&lt;font style=&quot;font-size: 16px;&quot;&gt;add file3.txt&lt;/font&gt;" style="rounded=1;whiteSpace=wrap;html=1;fontSize=12;glass=0;strokeWidth=1;shadow=0;" vertex="1" parent="WIyWlLk6GJQsqaUBKTNV-1">
          <mxGeometry x="435" y="610" width="120" height="40" as="geometry" />
        </mxCell>
        <mxCell id="XKEVR6qVA4fLdjEMJO-D-15" value="" style="rounded=0;html=1;jettySize=auto;orthogonalLoop=1;fontSize=11;endArrow=classicThin;endFill=1;endSize=8;strokeWidth=1;shadow=0;labelBackgroundColor=none;edgeStyle=orthogonalEdgeStyle;" edge="1" parent="WIyWlLk6GJQsqaUBKTNV-1" source="XKEVR6qVA4fLdjEMJO-D-14" target="XKEVR6qVA4fLdjEMJO-D-16">
          <mxGeometry relative="1" as="geometry">
            <mxPoint x="495" y="650" as="sourcePoint" />
            <mxPoint x="495" y="700" as="targetPoint" />
          </mxGeometry>
        </mxCell>
        <mxCell id="XKEVR6qVA4fLdjEMJO-D-16" value="" style="triangle;whiteSpace=wrap;html=1;rotation=-90;" vertex="1" parent="WIyWlLk6GJQsqaUBKTNV-1">
          <mxGeometry x="470" y="680" width="50" height="60" as="geometry" />
        </mxCell>
        <mxCell id="XKEVR6qVA4fLdjEMJO-D-17" value="" style="triangle;whiteSpace=wrap;html=1;rotation=-90;" vertex="1" parent="WIyWlLk6GJQsqaUBKTNV-1">
          <mxGeometry x="470" y="770" width="50" height="60" as="geometry" />
        </mxCell>
        <mxCell id="XKEVR6qVA4fLdjEMJO-D-18" value="&lt;span style=&quot;font-size: 22px;&quot;&gt;333&lt;/span&gt;" style="ellipse;whiteSpace=wrap;html=1;aspect=fixed;" vertex="1" parent="WIyWlLk6GJQsqaUBKTNV-1">
          <mxGeometry x="465" y="860" width="60" height="60" as="geometry" />
        </mxCell>
        <mxCell id="XKEVR6qVA4fLdjEMJO-D-19" value="" style="endArrow=classic;html=1;rounded=0;exitX=0;exitY=0.5;exitDx=0;exitDy=0;entryX=1;entryY=0.5;entryDx=0;entryDy=0;" edge="1" parent="WIyWlLk6GJQsqaUBKTNV-1" source="XKEVR6qVA4fLdjEMJO-D-9" target="XKEVR6qVA4fLdjEMJO-D-1">
          <mxGeometry width="50" height="50" relative="1" as="geometry">
            <mxPoint x="195" y="735" as="sourcePoint" />
            <mxPoint x="245" y="685" as="targetPoint" />
          </mxGeometry>
        </mxCell>
        <mxCell id="XKEVR6qVA4fLdjEMJO-D-20" value="" style="endArrow=classic;html=1;rounded=0;exitX=0;exitY=0.5;exitDx=0;exitDy=0;entryX=1;entryY=0.5;entryDx=0;entryDy=0;" edge="1" parent="WIyWlLk6GJQsqaUBKTNV-1" source="XKEVR6qVA4fLdjEMJO-D-14" target="XKEVR6qVA4fLdjEMJO-D-9">
          <mxGeometry width="50" height="50" relative="1" as="geometry">
            <mxPoint x="435" y="629.5" as="sourcePoint" />
            <mxPoint x="375" y="629.5" as="targetPoint" />
          </mxGeometry>
        </mxCell>
        <mxCell id="XKEVR6qVA4fLdjEMJO-D-21" value="" style="endArrow=classic;html=1;rounded=0;exitX=0;exitY=0.5;exitDx=0;exitDy=0;entryX=1;entryY=0.5;entryDx=0;entryDy=0;" edge="1" parent="WIyWlLk6GJQsqaUBKTNV-1" source="XKEVR6qVA4fLdjEMJO-D-7" target="XKEVR6qVA4fLdjEMJO-D-4">
          <mxGeometry width="50" height="50" relative="1" as="geometry">
            <mxPoint x="175" y="770" as="sourcePoint" />
            <mxPoint x="225" y="720" as="targetPoint" />
          </mxGeometry>
        </mxCell>
        <mxCell id="XKEVR6qVA4fLdjEMJO-D-22" value="" style="endArrow=classic;html=1;rounded=0;exitX=0;exitY=0.5;exitDx=0;exitDy=0;entryX=0.5;entryY=0;entryDx=0;entryDy=0;" edge="1" parent="WIyWlLk6GJQsqaUBKTNV-1" source="XKEVR6qVA4fLdjEMJO-D-4" target="XKEVR6qVA4fLdjEMJO-D-5">
          <mxGeometry width="50" height="50" relative="1" as="geometry">
            <mxPoint x="-105" y="950" as="sourcePoint" />
            <mxPoint x="-55" y="900" as="targetPoint" />
          </mxGeometry>
        </mxCell>
        <mxCell id="XKEVR6qVA4fLdjEMJO-D-23" value="" style="endArrow=classic;html=1;rounded=0;exitX=0;exitY=0.5;exitDx=0;exitDy=0;entryX=0.5;entryY=0;entryDx=0;entryDy=0;" edge="1" parent="WIyWlLk6GJQsqaUBKTNV-1" source="XKEVR6qVA4fLdjEMJO-D-11" target="XKEVR6qVA4fLdjEMJO-D-12">
          <mxGeometry width="50" height="50" relative="1" as="geometry">
            <mxPoint x="375" y="830" as="sourcePoint" />
            <mxPoint x="425" y="780" as="targetPoint" />
          </mxGeometry>
        </mxCell>
        <mxCell id="XKEVR6qVA4fLdjEMJO-D-24" value="" style="endArrow=classic;html=1;rounded=0;exitX=0;exitY=0.5;exitDx=0;exitDy=0;entryX=1;entryY=0.5;entryDx=0;entryDy=0;" edge="1" parent="WIyWlLk6GJQsqaUBKTNV-1" source="XKEVR6qVA4fLdjEMJO-D-16" target="XKEVR6qVA4fLdjEMJO-D-17">
          <mxGeometry width="50" height="50" relative="1" as="geometry">
            <mxPoint x="535" y="780" as="sourcePoint" />
            <mxPoint x="585" y="730" as="targetPoint" />
          </mxGeometry>
        </mxCell>
        <mxCell id="XKEVR6qVA4fLdjEMJO-D-25" value="" style="endArrow=classic;html=1;rounded=0;entryX=0.5;entryY=0;entryDx=0;entryDy=0;exitX=0;exitY=0.5;exitDx=0;exitDy=0;" edge="1" parent="WIyWlLk6GJQsqaUBKTNV-1" source="XKEVR6qVA4fLdjEMJO-D-17" target="XKEVR6qVA4fLdjEMJO-D-18">
          <mxGeometry width="50" height="50" relative="1" as="geometry">
            <mxPoint x="375" y="930" as="sourcePoint" />
            <mxPoint x="425" y="880" as="targetPoint" />
          </mxGeometry>
        </mxCell>
        <mxCell id="XKEVR6qVA4fLdjEMJO-D-26" value="" style="endArrow=classic;html=1;rounded=0;exitX=0;exitY=0.5;exitDx=0;exitDy=0;dashed=1;" edge="1" parent="WIyWlLk6GJQsqaUBKTNV-1" source="XKEVR6qVA4fLdjEMJO-D-11" target="XKEVR6qVA4fLdjEMJO-D-4">
          <mxGeometry width="50" height="50" relative="1" as="geometry">
            <mxPoint x="185" y="790" as="sourcePoint" />
            <mxPoint x="235" y="740" as="targetPoint" />
          </mxGeometry>
        </mxCell>
        <mxCell id="XKEVR6qVA4fLdjEMJO-D-27" value="" style="endArrow=classic;html=1;rounded=0;exitX=0;exitY=0.5;exitDx=0;exitDy=0;entryX=1;entryY=0;entryDx=0;entryDy=0;dashed=1;" edge="1" parent="WIyWlLk6GJQsqaUBKTNV-1" source="XKEVR6qVA4fLdjEMJO-D-16" target="XKEVR6qVA4fLdjEMJO-D-12">
          <mxGeometry width="50" height="50" relative="1" as="geometry">
            <mxPoint x="365" y="780" as="sourcePoint" />
            <mxPoint x="415" y="730" as="targetPoint" />
          </mxGeometry>
        </mxCell>
        <mxCell id="XKEVR6qVA4fLdjEMJO-D-28" value="" style="endArrow=classic;html=1;rounded=0;entryX=0.96;entryY=0.367;entryDx=0;entryDy=0;entryPerimeter=0;dashed=1;exitX=0;exitY=0.5;exitDx=0;exitDy=0;" edge="1" parent="WIyWlLk6GJQsqaUBKTNV-1" source="XKEVR6qVA4fLdjEMJO-D-17" target="XKEVR6qVA4fLdjEMJO-D-5">
          <mxGeometry width="50" height="50" relative="1" as="geometry">
            <mxPoint x="445" y="870" as="sourcePoint" />
            <mxPoint x="355" y="880" as="targetPoint" />
          </mxGeometry>
        </mxCell>
        <mxCell id="XKEVR6qVA4fLdjEMJO-D-29" value="&lt;font style=&quot;font-size: 16px;&quot;&gt;empty commit&lt;/font&gt;" style="rounded=1;whiteSpace=wrap;html=1;fontSize=12;glass=0;strokeWidth=1;shadow=0;" vertex="1" parent="WIyWlLk6GJQsqaUBKTNV-1">
          <mxGeometry x="610" y="610" width="120" height="40" as="geometry" />
        </mxCell>
        <mxCell id="XKEVR6qVA4fLdjEMJO-D-30" value="" style="endArrow=classic;html=1;rounded=0;entryX=1;entryY=0.5;entryDx=0;entryDy=0;exitX=0;exitY=0.5;exitDx=0;exitDy=0;" edge="1" parent="WIyWlLk6GJQsqaUBKTNV-1" source="XKEVR6qVA4fLdjEMJO-D-29" target="XKEVR6qVA4fLdjEMJO-D-14">
          <mxGeometry width="50" height="50" relative="1" as="geometry">
            <mxPoint x="570" y="710" as="sourcePoint" />
            <mxPoint x="620" y="660" as="targetPoint" />
          </mxGeometry>
        </mxCell>
        <mxCell id="XKEVR6qVA4fLdjEMJO-D-31" value="" style="endArrow=classic;html=1;rounded=0;exitX=0.5;exitY=1;exitDx=0;exitDy=0;entryX=0.5;entryY=1;entryDx=0;entryDy=0;dashed=1;" edge="1" parent="WIyWlLk6GJQsqaUBKTNV-1" source="XKEVR6qVA4fLdjEMJO-D-29" target="XKEVR6qVA4fLdjEMJO-D-16">
          <mxGeometry width="50" height="50" relative="1" as="geometry">
            <mxPoint x="630" y="740" as="sourcePoint" />
            <mxPoint x="680" y="690" as="targetPoint" />
          </mxGeometry>
        </mxCell>
        <mxCell id="XKEVR6qVA4fLdjEMJO-D-32" value="&lt;font style=&quot;font-size: 15px;&quot;&gt;file1.txt&lt;/font&gt;" style="text;html=1;align=center;verticalAlign=middle;whiteSpace=wrap;rounded=0;" vertex="1" parent="WIyWlLk6GJQsqaUBKTNV-1">
          <mxGeometry x="40" y="830" width="60" height="30" as="geometry" />
        </mxCell>
        <mxCell id="XKEVR6qVA4fLdjEMJO-D-33" value="&lt;font style=&quot;font-size: 15px;&quot;&gt;file2.txt&lt;/font&gt;" style="text;html=1;align=center;verticalAlign=middle;whiteSpace=wrap;rounded=0;" vertex="1" parent="WIyWlLk6GJQsqaUBKTNV-1">
          <mxGeometry x="115" y="920" width="60" height="30" as="geometry" />
        </mxCell>
        <mxCell id="XKEVR6qVA4fLdjEMJO-D-34" value="&lt;font style=&quot;font-size: 15px;&quot;&gt;file1.txt&lt;/font&gt;" style="text;html=1;align=center;verticalAlign=middle;whiteSpace=wrap;rounded=0;" vertex="1" parent="WIyWlLk6GJQsqaUBKTNV-1">
          <mxGeometry x="275" y="830" width="60" height="30" as="geometry" />
        </mxCell>
        <mxCell id="XKEVR6qVA4fLdjEMJO-D-35" value="&lt;font style=&quot;font-size: 15px;&quot;&gt;file3.txt&lt;/font&gt;" style="text;html=1;align=center;verticalAlign=middle;whiteSpace=wrap;rounded=0;" vertex="1" parent="WIyWlLk6GJQsqaUBKTNV-1">
          <mxGeometry x="465" y="920" width="60" height="30" as="geometry" />
        </mxCell>
        <mxCell id="XKEVR6qVA4fLdjEMJO-D-36" value="&lt;span style=&quot;font-size: 15px;&quot;&gt;my-dir&lt;/span&gt;" style="text;html=1;align=center;verticalAlign=middle;whiteSpace=wrap;rounded=0;" vertex="1" parent="WIyWlLk6GJQsqaUBKTNV-1">
          <mxGeometry x="150" y="820" width="90" height="30" as="geometry" />
        </mxCell>
        <mxCell id="XKEVR6qVA4fLdjEMJO-D-37" value="&lt;span style=&quot;font-size: 15px;&quot;&gt;my-dir&lt;/span&gt;" style="text;html=1;align=center;verticalAlign=middle;whiteSpace=wrap;rounded=0;" vertex="1" parent="WIyWlLk6GJQsqaUBKTNV-1">
          <mxGeometry x="480" y="820" width="90" height="30" as="geometry" />
        </mxCell>
        <mxCell id="XKEVR6qVA4fLdjEMJO-D-38" value="&lt;span style=&quot;font-size: 15px;&quot;&gt;root&lt;/span&gt;" style="text;html=1;align=center;verticalAlign=middle;whiteSpace=wrap;rounded=0;" vertex="1" parent="WIyWlLk6GJQsqaUBKTNV-1">
          <mxGeometry x="40" y="690" width="90" height="30" as="geometry" />
        </mxCell>
        <mxCell id="XKEVR6qVA4fLdjEMJO-D-39" value="&lt;span style=&quot;font-size: 15px;&quot;&gt;root&lt;/span&gt;" style="text;html=1;align=center;verticalAlign=middle;whiteSpace=wrap;rounded=0;" vertex="1" parent="WIyWlLk6GJQsqaUBKTNV-1">
          <mxGeometry x="220" y="690" width="90" height="30" as="geometry" />
        </mxCell>
        <mxCell id="XKEVR6qVA4fLdjEMJO-D-40" value="&lt;span style=&quot;font-size: 15px;&quot;&gt;root&lt;/span&gt;" style="text;html=1;align=center;verticalAlign=middle;whiteSpace=wrap;rounded=0;" vertex="1" parent="WIyWlLk6GJQsqaUBKTNV-1">
          <mxGeometry x="410" y="695" width="90" height="30" as="geometry" />
        </mxCell>
      </root>
    </mxGraphModel>
  </diagram>
</mxfile>
